<?xml version="1.0" encoding="utf-8"?>
<!-- Generator: Adobe Illustrator 24.2.3, SVG Export Plug-In . SVG Version: 6.00 Build 0)  -->
<svg version="1.1" id="Layer_1" xmlns="http://www.w3.org/2000/svg" xmlns:xlink="http://www.w3.org/1999/xlink" x="0px" y="0px"
	 viewBox="0 0 611.1 525.1" style="enable-background:new 0 0 611.1 525.1;" xml:space="preserve">
<style type="text/css">
	.st0{display:none;fill:#38E07B;}
	.st1{fill:#3F7EED;}
</style>
<rect y="0" class="st0" width="611.1" height="525.1"/>
<path class="st1" d="M515.3,378.9c-0.6,4-3.3,6.1-8.1,6.2c-6.2,0.1-12.4,0.1-18.6,0c-4.2,0-7-2.4-7.6-6.3s0.9-6.4,5.4-7.6
	c2.9-0.8,3.4-2.2,3.4-4.9c-0.1-10.2-0.1-20.4,0-30.6c0-2.1-0.5-3-2.7-3.7c-6.6-2.2-8.5-8.9-4-12.8c1.5-1.2,3.5-1.8,5.4-1.7
	c3.2,0,6.5,0,9.7,0s6.2,0,9.3,0c4.8,0.1,7.4,1.9,8,5.6c0.7,4-1,7.5-5.4,8.6c-3.4,0.8-3.3,2.6-3.3,5.2c0.1,10.1,0.1,20.2,0,30.3
	c0,2.1,0.5,3.1,2.7,3.8C514.3,372.4,515.9,375,515.3,378.9z"/>
<path class="st1" d="M435.6,347.2c-1.5,2-1.2,3.3,0,5c5,6.9,9.9,13.9,14.9,20.8c0.5,0.7,1.1,1.5,1.6,2.2c3,4.4,2.9,6.7-0.1,9.1
	c-3,2.4-7.3,1.9-9.7-1.1c-0.2-0.2-0.4-0.5-0.5-0.7c-3.7-5.4-7-11.2-10.4-16.8c-1.8-2.9-3.6-5.8-5.5-8.8c-0.3,0.1-0.7,0.3-1,0.4
	c0,6.5,0,13.1,0,19.7c0,4.7-2.5,7-7.2,7.1c-4.2,0.1-7.1-2.4-7.1-6.9c-0.1-20.2,0-40.3,0.1-60.5c0-4.4,2.7-6.7,7.3-6.7s6.9,2.1,7,6.5
	c0.2,6.7,0,13.3,0,21c3.8-5.6,6.9-10.3,10.1-15c2-2.9,4-5.7,6.1-8.5c2.8-3.7,6.6-4.2,10.8-3c5.2,1.5,6.5,5.2,3.3,9.6
	C448.7,329.6,442.2,338.5,435.6,347.2z"/>
<path class="st1" d="M390.5,359.6c0,4.1,0,8.3,0,12.4c0,5.5-2,8.1-6.9,9.1c-5.2,1.1-10.5-1-12.1-5.3c-0.9-2.3-1.5-3.1-3.6-1.4
	c-11.6,9.5-35.1,6.7-46.2-8.9c-10.5-14.7-8.1-35.6,5.6-47.4c12.1-10.3,25.8-11.4,40.4-6.5c5,1.7,6.7,4.5,6,8.6
	c-0.6,3.3-3.9,5.6-8.6,5.7c-5.8,0-11.6,0-17.3,1.4c-7.8,2-13.4,6.3-15.1,14.3c-1.5,6.8,1.2,12.6,6.6,16.7c6.6,5,14,6.3,21.9,2.8
	c2.9-1.5,5.5-3.4,7.7-5.8c0.6-0.6,1.3-1.4,0.8-2.4s-1.4-0.5-2.1-0.5c-4.5,0-9,0.1-13.6,0c-4.7-0.1-7.7-2.8-7.9-6.8
	c-0.3-4.4,2.2-7.8,6.9-8.2c10.2-1,20.4-0.7,30.6-0.3c4.2,0.2,6.8,3.5,6.9,7.9c0.1,4.8,0,9.6,0,14.4H390.5z"/>
<path class="st1" d="M297.1,331.9c0,12.7,0,25.4-0.1,38c0,3.4-0.6,6.6-4.2,8.1c-3.9,1.5-8.2,0.3-10.9-2.8c-4-4.8-6.9-10.3-10.3-15.5
	c-1.1-2.1-2.7-4-4.6-5.5c0,6.4,0,12,0,17.6s-2.5,8.6-7.6,8.6c-5.6,0.1-8.6-2.8-8.7-8.5c-0.1-18.4,0-36.8-0.1-55.1
	c0-3.8,0.9-6.9,5.1-8c3.9-1,7.4,0.1,9.6,3.9c4.6,8,8.9,16.1,13.3,24.1c0.7,1.4,1.7,2.6,2.9,3.4v-13.6c0-4.3-0.2-8.5,0.1-12.8
	s3.1-6.3,7.9-6.1c4.4,0.1,7.1,2.3,7.3,6.3C297,320,297.1,326,297.1,331.9z"/>
<path class="st1" d="M222.1,317.3c-11.2-9.4-26.3-9.2-37.2,0.5c-8.1,7.1-11.4,16.4-11.8,25.8c0,8.8,2.2,15.8,6.7,22.1
	c13.1,18.4,39.2,17.3,50.5-2.1C238.8,349,235.1,328.1,222.1,317.3z M203.9,361.1c-8.2,0.1-14.9-7-15-16.1s6.7-16.5,15-16.6
	s15.1,7.3,15.3,16.3C219.4,353.4,212.3,361,203.9,361.1L203.9,361.1z"/>
<path class="st1" d="M148,378.9c-0.1,3.7-1.5,6.8-5.5,8c-4.3,1.3-7.7,0.2-10.1-3.6c-4.7-7.6-9.2-15.3-13.8-22.9
	c-0.4-0.6-0.8-1.2-1.2-1.9c-0.2,0.1-0.4,0.2-0.7,0.3c0,6.5,0.1,12.9,0,19.4c-0.1,6.8-2.4,9.5-7.9,9.6c-5.7,0-8.7-3.3-8.7-10
	c-0.1-17.5,0-34.9,0-52.4c0-3.4,0.5-6.5,4.2-7.9c4-1.5,8.5-0.4,11.3,2.9c4,5.1,6.6,11.1,10,16.6c1.8,3.2,4,6.2,6.5,8.9v-14.1
	c0-3.6-0.1-7.2,0-10.9c0.1-5.2,2.9-7.9,7.9-7.9s7.9,2.8,8,7.9c0.1,15.4,0,30.8,0,46.2C148,371.1,148.1,375,148,378.9z"/>
<path class="st1" d="M142.6,228.8c-1.3,3.9-0.5,7.1,1,10.4c7,15.5,14.1,31.1,21.2,46.6c0.8,1.8,1.8,3.5,2.4,5.3
	c1.9,5.1-0.6,9.3-6.1,10.2c-4.2,0.8-8.5,0.6-12.8,0.9c-5.3,0.4-8.6-2.1-10.6-6.7c-7.2-16-14.3-32.1-21.5-48.1
	c-0.3-0.7-0.6-1.3-0.9-1.9l-0.8,0.3c0,16.8,0,33.7,0,50.5c0,7.9-1.5,9.6-9.2,10.4c-4,0.4-8,0.8-12,1c-3.1,0.2-4.7-1.6-5.1-4.6
	c-0.1-1.2-0.2-2.3-0.1-3.5c0-36.5,0-73,0-109.5c0-2.5,0-4.9-1.5-7.1c-1.4-2.2-3.9-3.6-6.5-3.5c-4.2,0.1-8.3,0.1-12.4,0.1
	c-3.4,0.1-6.2-2.6-6.2-6c-0.1-3.4,2.3-5.8,6.2-6c4.5-0.2,9.1-0.3,13.6-0.2c3.1,0,4.7-1.6,5.7-4.3c0.1-0.4,0.3-0.7,0.4-1.1
	c2.7-11.9,9.2-13,19.8-11.8c5.2,0.6,7.4,3.5,7.4,9.1c0.1,21.3,0.1,42.7,0.2,64.1v2.3c1.6,0.2,1.3-1,1.6-1.7l26.9-76
	c3.2-9,6-10.8,15.6-10.4c1.6,0.1,3.1,0.2,4.6,0.4c6.4,1,8.1,3.7,6,9.9C160.6,174.8,151.7,201.9,142.6,228.8z"/>
<path class="st1" d="M549.6,173.3c-0.1,3.7-2.6,6-7,6c-5.4,0.1-10.9,0-16.3,0.1c-6,0.1-8.4,2.5-8.4,8.6c0,36.2,0,72.4,0,108.6v4.3
	c0,3-1.6,4.7-4.6,4.4c-4.9-0.4-9.8-1-14.6-1.9c-3.7-0.8-6-3.5-6.5-7.3c-0.2-1.5-0.3-3.1-0.3-4.6c0-21.9,0-43.7,0-65.6h-0.1v-65.5
	c0-7.8,2.8-10.7,10.6-11c10.6-0.4,13.6,1.6,17,11.9c1.4,4.1,3.6,6.3,8.2,6.1c5-0.2,10.1-0.2,15.1-0.1
	C547.2,167.3,549.6,169.6,549.6,173.3z"/>
<path class="st1" d="M246.7,297.9l-52.4,2.3c-3.7,0.2-6.3-1.8-6.5-5.1s1.8-5.6,5.8-5.8c14.6-0.8,29.2-1.5,43.8-1.9
	c19.5-0.6,39.1-0.9,58.6-1.4c1.3,0,2.6-0.1,3.9,0c4.1,0.3,6.2,2.4,6.2,6c0,3.4-2,5.2-6.2,5.3c-7.8,0.1-15.5,0.1-23.3,0.2
	c-10,0-19.9,0-29.9,0L246.7,297.9z"/>
<path class="st1" d="M337,297.3c-3.6,0-7.2,0.1-10.8,0c-3.9-0.1-6.4-2.6-6.2-5.9s2.2-4.8,6.2-4.8c6.8,0,13.7,0.1,20.5,0.3
	c1.7,0,3.4,0,4.8,1.2c1.8,1.4,2.5,3.8,1.7,6c-0.5,2.1-2.4,3.6-4.6,3.4c-3.9,0-7.7,0-11.6,0V297.3z"/>
<path class="st1" d="M384.2,298.8c-3.7-0.2-7.5-0.3-11.2-0.6c-3.3-0.2-5.1-2.2-5-5.6s2.1-5.1,5.2-5.1c7.2,0.1,14.5,0.5,21.7,1
	c3.6,0.3,5.6,2.8,5.3,5.9c-0.3,3.3-2.2,4.7-6.3,4.6c-1.7,0-3.4-0.1-5-0.2S385.8,298.9,384.2,298.8L384.2,298.8z"/>
<path class="st1" d="M433,302c-4.5-0.3-9-0.5-13.5-0.9c-4.3-0.3-6.3-2.2-6.1-5.5s2.9-5.2,7-4.9c5.3,0.4,10.6,0.8,15.9,1.1
	c4.2,0.3,6.5,2.5,6.2,5.8s-2.8,5-7.1,4.6l-2.3-0.2V302z"/>
<path class="st1" d="M464.2,294.1c2,0.1,4,0.4,6,0.9c2.6,0.5,4.3,3,3.8,5.7c0,0.1,0,0.2,0,0.2c-0.5,2.7-2.2,4.4-5.1,4.3
	c-3.1-0.1-6.2-0.4-9.2-0.8c-2.9-0.5-3.9-2.9-3.7-5.5s1.7-4.6,4.7-4.6C461.7,294.1,462.9,294.1,464.2,294.1z"/>
<path class="st1" d="M252.5,259.2c0,1.4-0.1,2.8-0.2,4.2c-0.1,0.9-0.3,1.9-0.7,2.8c-0.2,0.6-0.6,1.1-1.1,1.5
	c-0.4,0.3-0.9,0.5-1.4,0.5h-56.6c-1.8,0-3.5-0.6-4.9-1.7c-1.3-1.1-1.9-3-1.9-5.5v-98.2c0-2.6,0.7-4.4,1.9-5.5
	c1.4-1.1,3.1-1.8,4.9-1.7h56.3c0.5,0,1,0.2,1.4,0.4c0.5,0.4,0.8,0.9,1,1.5c0.3,0.9,0.5,1.8,0.6,2.8c0.3,2.8,0.3,5.5,0,8.3
	c0,1.4-0.1,2.8-0.2,4.1c-0.1,0.9-0.3,1.9-0.6,2.8c-0.2,0.6-0.5,1.1-1,1.5c-0.4,0.3-0.9,0.5-1.4,0.5h-40v23.5h34.1
	c0.5,0,1,0.2,1.4,0.5c0.5,0.4,0.9,0.9,1.1,1.5c0.3,0.9,0.5,1.8,0.6,2.7c0.3,2.8,0.3,5.5,0,8.3c-0.1,0.9-0.3,1.8-0.6,2.7
	c-0.2,0.6-0.6,1.1-1.1,1.5c-0.4,0.3-0.9,0.4-1.4,0.4h-34v31.8h40.6c0.5,0,1,0.2,1.4,0.5c0.5,0.4,0.9,0.9,1.1,1.5
	c0.3,0.9,0.6,1.8,0.7,2.8C252.5,256.4,252.6,257.8,252.5,259.2z"/>
<path class="st1" d="M362.6,186.5c-2.3-6.5-6-12.3-10.9-17.1c-5-4.8-11.1-8.3-17.7-10.4c-7-2.4-15.5-3.5-25.6-3.5h-28.9
	c-1.8-0.1-3.5,0.6-4.8,1.7c-1.3,1.1-2,3-2,5.5v98.2c0,2.6,0.7,4.4,2,5.5c1.3,1.1,3.1,1.7,4.8,1.7h26.9c10,0,18.6-1.1,25.8-3.3
	c6.8-2,13.1-5.5,18.4-10.2c5.3-5,9.2-11.2,11.6-18c2.7-7.3,4.1-16.2,4.1-26.5C366.5,202.1,365.2,194.1,362.6,186.5z M340.5,228
	c-1.2,4.5-3.4,8.7-6.4,12.3c-2.9,3.3-6.6,5.8-10.8,7.3c-5.1,1.7-10.5,2.6-15.8,2.4h-11.9v-76.6h11.6c7,0,12.7,1,17,2.8
	c4.1,1.7,7.8,4.4,10.6,7.9c2.8,3.5,4.9,7.6,6,11.9c1.3,4.9,1.9,9.9,1.9,14.9C342.7,216.7,342,222.4,340.5,228z"/>
<path class="st1" d="M474.6,264.6c-0.3-1.7-0.7-3.4-1.3-5l-34.8-99.9c-0.3-0.9-0.7-1.8-1.3-2.6c-0.6-0.7-1.5-1.2-2.4-1.4
	c-1.6-0.4-3.1-0.6-4.7-0.6c-2-0.1-4.8-0.1-8.2-0.1c-3,0-5.3,0.1-7.1,0.1c-1.4,0-2.8,0.2-4.2,0.6c-0.9,0.2-1.6,0.7-2.2,1.4
	c-0.5,0.7-0.9,1.5-1.2,2.4l-34.8,100c-0.6,1.6-1,3.2-1.3,4.9c-0.2,1,0,2,0.6,2.8c0.9,0.8,2,1.2,3.1,1.3c2.1,0.2,4.2,0.3,6.3,0.3
	c2.5,0,4.5,0,6.1-0.2c1.2,0,2.4-0.3,3.6-0.6c0.7-0.2,1.4-0.7,1.8-1.3c0.4-0.6,0.7-1.3,0.9-2l7.1-22h42.3l7.6,22.6
	c0.2,0.7,0.5,1.3,0.9,1.8c0.5,0.5,1.1,0.9,1.8,1.1c1.2,0.3,2.5,0.5,3.8,0.5c1.7,0.1,4,0.1,6.9,0.1s5.1-0.1,6.7-0.2
	c1.2,0,2.4-0.4,3.4-1.1C474.6,266.6,474.9,265.6,474.6,264.6z M405.5,224.9l15.9-47.9h0.1l16,47.9L405.5,224.9z"/>
</svg>
